<svg height='300px' width='300px'  fill="#000000" xmlns="http://www.w3.org/2000/svg" xmlns:xlink="http://www.w3.org/1999/xlink" version="1.1" x="0px" y="0px" viewBox="26 -26 100 100" style="enable-background:new 26 -26 100 100;" xml:space="preserve"><style type="text/css">
	.st0{fill-rule:evenodd;clip-rule:evenodd;}
</style><path class="st0" d="M82.2,23.5l31.9,31.9c1.9,1.9,1.9,4.9,0,6.7c-1.9,1.9-4.9,1.9-6.7,0L75.5,30.2L43.6,62.1  c-1.9,1.9-4.9,1.9-6.7,0c-1.9-1.9-1.9-4.9,0-6.7l31.9-31.9L36.9-8.4c-1.9-1.9-1.9-4.9,0-6.7c1.9-1.9,4.9-1.9,6.7,0l31.9,31.9  l31.9-31.9c1.9-1.9,4.9-1.9,6.7,0c1.9,1.9,1.9,4.9,0,6.7L82.2,23.5z"></path></svg>