<?xml version="1.0" encoding="utf-8"?>
<!-- Generator: Adobe Illustrator 22.0.1, SVG Export Plug-In . SVG Version: 6.00 Build 0)  -->
<svg version="1.1" id="Layer_1" xmlns="http://www.w3.org/2000/svg" xmlns:xlink="http://www.w3.org/1999/xlink" x="0px" y="0px"
	 viewBox="0 0 38 38" style="enable-background:new 0 0 38 38;" xml:space="preserve">
<style type="text/css">
	.st0{fill-rule:evenodd;clip-rule:evenodd;fill:#FFFFFF;}
</style>
<path class="st0" d="M24.8,6.5c1.2,0,2.3,0,3.5,0c0.1,0,0.3,0,0.5,0V0.5c-0.6-0.1-1.3-0.2-1.9-0.2c-1.2-0.1-2.4-0.1-3.6-0.1
	c-1.8,0-3.6,0.5-5.1,1.6c-1.7,1.2-2.7,3-3,5.1C15,7.7,15,8.6,15,9.4c0,1.4,0,2.7,0,4.1V14H9.2v6.8h5.8v17h7v-17h5.7
	c0.3-2.3,0.6-4.5,0.9-6.8c-0.5,0-0.9,0-1.3,0c-1.6,0-5.4,0-5.4,0s0-3.4,0.1-4.8C22.1,7.2,23.2,6.6,24.8,6.5z"/>
</svg>
