<?xml version="1.0" encoding="utf-8"?>
<!-- Generator: Adobe Illustrator 22.0.1, SVG Export Plug-In . SVG Version: 6.00 Build 0)  -->
<svg version="1.1" id="Layer_1" xmlns="http://www.w3.org/2000/svg" xmlns:xlink="http://www.w3.org/1999/xlink" x="0px" y="0px"
	 viewBox="0 0 38 38" style="enable-background:new 0 0 38 38;" xml:space="preserve">
<style type="text/css">
	.st0{fill:#FFFFFF;}
</style>
<g>
	<path class="st0" d="M37.7,9.5C37.4,7,36.5,4.8,34.6,3c-2-1.9-4.3-2.7-7-2.8C23.2,0,12.6-0.2,8.9,0.4c-4.3,0.7-7,3.2-8.2,7.4
		C-0.3,11-0.1,25.9,0.4,29.1c0.7,4.4,3.3,7.2,7.6,8.3c3,0.8,17.7,0.7,21,0.1c4.4-0.7,7.2-3.3,8.3-7.6C38.3,26.6,38,12.5,37.7,9.5z
		 M34.2,28.5c-0.5,3.3-2.7,5.4-6,5.7c-3.1,0.3-16.8,0.5-19.6-0.3c-2.7-0.8-4.3-2.6-4.7-5.4C3.4,26,3.3,12.9,3.8,9.4
		c0.5-3.3,2.7-5.3,6-5.7c3.4-0.4,15.5-0.4,18.7,0.1c3.3,0.5,5.4,2.7,5.7,6.1C34.6,13,34.7,25.2,34.2,28.5z M19,9.3
		c-5.4,0-9.7,4.4-9.7,9.7c0,5.4,4.4,9.7,9.7,9.7c5.4,0,9.7-4.4,9.7-9.7C28.7,13.6,24.4,9.3,19,9.3z M18.9,25.3
		c-3.5,0-6.3-2.9-6.2-6.4c0-3.5,2.9-6.3,6.4-6.2c3.5,0,6.3,2.9,6.2,6.4C25.3,22.5,22.4,25.3,18.9,25.3z M31.4,8.9
		c0,1.3-1,2.3-2.3,2.3c-1.3,0-2.3-1-2.3-2.3c0-1.3,1-2.3,2.3-2.3C30.4,6.6,31.4,7.6,31.4,8.9z"/>
	<path class="st0" d="M37.7,9.5C37.4,7,36.5,4.8,34.6,3c-2-1.9-4.3-2.7-7-2.8C23.2,0,12.6-0.2,8.9,0.4c-4.3,0.7-7,3.2-8.2,7.4
		C-0.3,11-0.1,25.9,0.4,29.1c0.7,4.4,3.3,7.2,7.6,8.3c3,0.8,17.7,0.7,21,0.1c4.4-0.7,7.2-3.3,8.3-7.6C38.3,26.6,38,12.5,37.7,9.5z
		 M34.2,28.5c-0.5,3.3-2.7,5.4-6,5.7c-3.1,0.3-16.8,0.5-19.6-0.3c-2.7-0.8-4.3-2.6-4.7-5.4C3.4,26,3.3,12.9,3.8,9.4
		c0.5-3.3,2.7-5.3,6-5.7c3.4-0.4,15.5-0.4,18.7,0.1c3.3,0.5,5.4,2.7,5.7,6.1C34.6,13,34.7,25.2,34.2,28.5z M19,9.3
		c-5.4,0-9.7,4.4-9.7,9.7c0,5.4,4.4,9.7,9.7,9.7c5.4,0,9.7-4.4,9.7-9.7C28.7,13.6,24.4,9.3,19,9.3z M18.9,25.3
		c-3.5,0-6.3-2.9-6.2-6.4c0-3.5,2.9-6.3,6.4-6.2c3.5,0,6.3,2.9,6.2,6.4C25.3,22.5,22.4,25.3,18.9,25.3z M31.4,8.9
		c0,1.3-1,2.3-2.3,2.3c-1.3,0-2.3-1-2.3-2.3c0-1.3,1-2.3,2.3-2.3C30.4,6.6,31.4,7.6,31.4,8.9z"/>
</g>
</svg>
