<?xml version="1.0" encoding="utf-8"?>
<!-- Generator: Adobe Illustrator 22.0.1, SVG Export Plug-In . SVG Version: 6.00 Build 0)  -->
<svg version="1.1" id="Layer_1" xmlns="http://www.w3.org/2000/svg" xmlns:xlink="http://www.w3.org/1999/xlink" x="0px" y="0px"
	 viewBox="0 0 38 38" style="enable-background:new 0 0 38 38;" xml:space="preserve">
<style type="text/css">
	.st0{fill:#FFFFFF;}
</style>
<g>
	<path id="LinkedIn" class="st0" d="M37.8,23.1V37h-8.1V24c0-3.3-1.2-5.5-4.1-5.5c-2.2,0-3.6,1.5-4.1,2.9c-0.2,0.5-0.3,1.2-0.3,2V37
		h-8.1c0,0,0.1-22,0-24.2h8.1v3.4c0,0,0,0.1-0.1,0.1h0.1v-0.1c1.1-1.6,3-4,7.3-4C33.8,12.2,37.8,15.6,37.8,23.1z M4.8,1
		C2,1,0.2,2.8,0.2,5.2c0,2.3,1.8,4.2,4.5,4.2h0.1c2.8,0,4.6-1.9,4.6-4.2C9.2,2.8,7.5,1,4.8,1z M0.7,37h8.1V12.7H0.7V37z"/>
</g>
</svg>
