<?xml version="1.0" encoding="utf-8"?>
<!-- Generator: Adobe Illustrator 22.0.1, SVG Export Plug-In . SVG Version: 6.00 Build 0)  -->
<svg version="1.1" id="Layer_1" xmlns="http://www.w3.org/2000/svg" xmlns:xlink="http://www.w3.org/1999/xlink" x="0px" y="0px"
	 viewBox="0 0 109.3 28.1" style="enable-background:new 0 0 109.3 28.1;" xml:space="preserve">
<style type="text/css">
	.st0{fill:#FFFFFF;}
</style>
<g>
	<g>
		<g>
			<path class="st0" d="M41.9,9c-0.9,0-1.6,0.7-1.6,1.5c0,0.8,0.7,1.5,1.6,1.5h1.7c0.9,0,1.6-0.7,1.6-1.5c0-0.8-0.7-1.5-1.6-1.5
				H41.9z M41,10.5c0-0.5,0.4-0.9,1-0.9h1.6c0.5,0,1,0.4,1,0.9c0,0.5-0.4,0.9-1,0.9h-1.6C41.4,11.4,41,11,41,10.5z"/>
			<path class="st0" d="M57.1,9c0,0,0,0.5,0,0.5c0,0,2,0,2,0v1.9c0,0-2,0-2,0c0,0,0,0.5,0,0.5c0,0,4.5,0,4.6,0c0,0,0-0.5,0-0.5
				c0,0-2,0-2,0V9.6c0,0,1.9,0,2,0c0,0,0-0.5,0-0.5C61.6,9,57.1,9,57.1,9z"/>
			<path class="st0" d="M63.5,9c-0.5,0-0.9,0.4-0.9,0.9c0,0.5,0.4,0.9,0.9,0.9h2.7c0.2,0,0.3,0.1,0.3,0.3c0,0.2-0.2,0.3-0.3,0.3
				c0,0-3.5,0-3.5,0c0,0,0,0.5,0,0.5c0,0,3.6,0,3.6,0c0.5,0,0.9-0.4,0.9-0.9c0-0.5-0.4-0.9-0.9-0.9h-2.7c-0.2,0-0.3-0.1-0.3-0.3
				c0-0.2,0.1-0.3,0.3-0.3c0,0,3.5,0,3.5,0c0,0,0-0.5,0-0.5C67,9,63.5,9,63.5,9z"/>
			<path class="st0" d="M105.6,9c-0.5,0-0.9,0.4-0.9,0.9c0,0.5,0.4,0.9,0.9,0.9h2.7c0.2,0,0.3,0.1,0.3,0.3c0,0.2-0.2,0.3-0.3,0.3
				c0,0-3.5,0-3.5,0c0,0,0,0.5,0,0.5c0,0,3.6,0,3.6,0c0.5,0,0.9-0.4,0.9-0.9c0-0.5-0.4-0.9-0.9-0.9h-2.7c-0.2,0-0.3-0.1-0.3-0.3
				c0-0.2,0.1-0.3,0.3-0.3c0,0,3.5,0,3.5,0c0,0,0-0.5,0-0.5C109.1,9,105.6,9,105.6,9z"/>
			<path class="st0" d="M73.1,9c-0.8,0-1.5,0.7-1.5,1.5c0,0.8,0.7,1.5,1.5,1.5H76c0.2,0,0.3-0.1,0.3-0.3v-1.2c0-0.1-0.1-0.3-0.3-0.3
				c0,0-3.1,0-3.1,0c0,0,0,0.5,0,0.5c0,0,2.7,0,2.7,0v0.7h-2.4c-0.5,0-1-0.4-1-0.9c0-0.5,0.4-0.9,1-0.9c0,0,3,0,3,0c0,0,0-0.5,0-0.5
				C76.2,9,73.1,9,73.1,9z"/>
			<path class="st0" d="M95,9c-0.8,0-1.5,0.7-1.5,1.5c0,0.8,0.7,1.5,1.5,1.5h2.8c0.2,0,0.3-0.1,0.3-0.3v-1.2c0-0.1-0.1-0.3-0.3-0.3
				c0,0-3.1,0-3.1,0c0,0,0,0.5,0,0.5c0,0,2.7,0,2.7,0v0.7h-2.4c-0.5,0-1-0.4-1-0.9c0-0.5,0.4-0.9,1-0.9c0,0,3,0,3,0c0,0,0-0.5,0-0.5
				C98.1,9,95,9,95,9z"/>
			<path class="st0" d="M99.4,9c-0.2,0-0.3,0.1-0.3,0.3v2.4c0,0.1,0.1,0.3,0.3,0.3c0,0,4.1,0,4.1,0c0,0,0-0.5,0-0.5c0,0-3.8,0-3.8,0
				v-0.7c0,0,3.8,0,3.8,0c0,0,0-0.5,0-0.5c0,0-3.8,0-3.8,0V9.6c0,0,3.8,0,3.8,0c0,0,0-0.5,0-0.5C103.5,9,99.4,9,99.4,9z"/>
			<path class="st0" d="M45.9,9c0,0,0,2.9,0,3c0,0,0.6,0,0.6,0c0,0,0-1.2,0-1.2h2.1c0,0,1.1,1.2,1.1,1.2s0.8,0,0.9,0
				c-0.1-0.1-1.1-1.2-1.1-1.2h0.2c0.5,0,0.9-0.4,0.9-0.9c0-0.5-0.4-0.9-0.9-0.9C49.7,9,46,9,45.9,9z M46.6,10.2V9.6h3
				c0.2,0,0.4,0.1,0.4,0.3c0,0.2-0.2,0.3-0.4,0.3L46.6,10.2L46.6,10.2z"/>
			<path class="st0" d="M51.6,9c0,0,0,2.9,0,3c0,0,0.6,0,0.6,0c0,0,0-1.2,0-1.2h2.1c0,0,1.1,1.2,1.1,1.2s0.8,0,0.9,0
				c-0.1-0.1-1.1-1.2-1.1-1.2h0.2c0.5,0,0.9-0.4,0.9-0.9c0-0.5-0.4-0.9-0.9-0.9C55.3,9,51.6,9,51.6,9z M52.2,10.2V9.6h3
				c0.2,0,0.4,0.1,0.4,0.3c0,0.2-0.2,0.3-0.4,0.3L52.2,10.2L52.2,10.2z"/>
			<path class="st0" d="M82.8,9c0,0,0,2.9,0,3c0,0,0.6,0,0.6,0c0,0,0-1.2,0-1.2h2.1c0,0,1.1,1.2,1.1,1.2s0.8,0,0.9,0
				c-0.1-0.1-1.1-1.2-1.1-1.2h0.2c0.5,0,0.9-0.4,0.9-0.9C87.4,9.4,87,9,86.5,9C86.5,9,82.8,9,82.8,9z M83.4,10.2V9.6h3
				c0.2,0,0.4,0.1,0.4,0.3c0,0.2-0.2,0.3-0.4,0.3L83.4,10.2L83.4,10.2z"/>
			<path class="st0" d="M34.8,9c0,0,0,2.9,0,3c0,0,0.6,0,0.6,0c0,0,0-2.2,0-2.2s1.7,1.1,1.7,1.1c0,0,1.8-1.1,1.8-1.1s0,2.2,0,2.2
				c0,0,0.6,0,0.6,0c0,0,0-2.9,0-3c0,0-0.5,0-0.5,0l0,0l-1.9,1.1l0,0L35.3,9C35.3,9,34.9,9,34.8,9z"/>
			<path class="st0" d="M79.5,9c-0.1,0-0.2,0-0.2,0.1c0,0-2.3,2.8-2.4,2.9c0.1,0,0.8,0,0.8,0c0,0,0.3-0.4,0.3-0.4H81
				c0,0,0.3,0.4,0.3,0.4c0,0,0.7,0,0.8,0c0-0.1-2.4-2.9-2.4-2.9C79.7,9.1,79.6,9,79.5,9L79.5,9z M78.9,10.6l0.6-0.8l0.6,0.8l0.4,0.5
				h-2.1l0.1-0.1l0,0L78.9,10.6z"/>
			<path class="st0" d="M90.7,9c-0.1,0-0.2,0-0.2,0.1c0,0-2.3,2.8-2.4,2.9c0.1,0,0.8,0,0.8,0c0,0,0.3-0.4,0.3-0.4h2.9
				c0,0,0.3,0.4,0.3,0.4c0,0,0.7,0,0.8,0c0-0.1-2.4-2.9-2.4-2.9C90.8,9.1,90.8,9,90.7,9L90.7,9z M90,10.6l0.6-0.8l0.6,0.8l0.4,0.5
				h-2.1l0.1-0.1l0,0L90,10.6z"/>
		</g>
		<g>
			<g>
				<path class="st0" d="M64,17l-0.3-0.2c-0.2-0.1-0.3-0.2-0.4-0.4c-0.1-0.1-0.1-0.3-0.1-0.4c0-0.2,0.1-0.4,0.2-0.6
					c0.2-0.1,0.4-0.2,0.6-0.2c0.2,0,0.5,0.1,0.7,0.2v0.5c-0.2-0.2-0.4-0.3-0.7-0.3c-0.1,0-0.2,0-0.3,0.1c-0.1,0.1-0.1,0.1-0.1,0.2
					c0,0.1,0,0.2,0.1,0.2c0.1,0.1,0.2,0.2,0.3,0.2l0.3,0.2c0.4,0.2,0.5,0.5,0.5,0.8c0,0.2-0.1,0.4-0.2,0.6c-0.2,0.1-0.4,0.2-0.6,0.2
					c-0.3,0-0.5-0.1-0.8-0.3v-0.5c0.2,0.3,0.5,0.4,0.8,0.4c0.1,0,0.2,0,0.3-0.1c0.1-0.1,0.1-0.2,0.1-0.3C64.3,17.3,64.2,17.1,64,17z
					"/>
				<path class="st0" d="M65.3,15.5c0.1,0,0.1,0,0.2,0.1c0,0,0.1,0.1,0.1,0.2c0,0.1,0,0.1-0.1,0.2c0,0-0.1,0.1-0.2,0.1
					c-0.1,0-0.1,0-0.2-0.1c0,0-0.1-0.1-0.1-0.2c0-0.1,0-0.1,0.1-0.2C65.2,15.5,65.2,15.5,65.3,15.5z M65.1,16.3h0.4v1.9h-0.4V16.3z"
					/>
				<path class="st0" d="M66.3,16.3v0.2c0.2-0.2,0.4-0.3,0.6-0.3c0.1,0,0.2,0,0.3,0.1c0.1,0.1,0.2,0.1,0.2,0.3
					c0.1,0.1,0.1,0.3,0.1,0.5v1.1h-0.4v-1.1c0-0.2,0-0.3-0.1-0.4c-0.1-0.1-0.2-0.1-0.3-0.1c-0.2,0-0.3,0.1-0.5,0.3v1.4h-0.4v-1.9
					H66.3z"/>
				<path class="st0" d="M69.3,17.7v0.4c-0.2,0.1-0.4,0.1-0.6,0.1c-0.3,0-0.5-0.1-0.7-0.3c-0.2-0.2-0.3-0.4-0.3-0.7
					c0-0.3,0.1-0.5,0.3-0.7c0.2-0.2,0.4-0.3,0.7-0.3c0.1,0,0.2,0,0.3,0c0.1,0,0.2,0.1,0.3,0.1v0.4c-0.2-0.1-0.4-0.2-0.5-0.2
					c-0.2,0-0.3,0.1-0.4,0.2c-0.1,0.1-0.2,0.3-0.2,0.5c0,0.2,0.1,0.3,0.2,0.5c0.1,0.1,0.3,0.2,0.5,0.2C69,17.9,69.2,17.8,69.3,17.7z
					"/>
				<path class="st0" d="M71.3,17.3h-1.3c0,0.2,0.1,0.3,0.2,0.4c0.1,0.1,0.3,0.2,0.4,0.2c0.2,0,0.5-0.1,0.7-0.2V18
					c-0.1,0.1-0.2,0.1-0.3,0.2c-0.1,0-0.2,0-0.4,0c-0.2,0-0.4,0-0.5-0.1c-0.1-0.1-0.2-0.2-0.3-0.4c-0.1-0.1-0.1-0.3-0.1-0.5
					c0-0.3,0.1-0.5,0.2-0.7c0.2-0.2,0.4-0.3,0.6-0.3c0.3,0,0.5,0.1,0.6,0.3C71.2,16.7,71.3,16.9,71.3,17.3L71.3,17.3z M69.9,17h1
					c0-0.2-0.1-0.3-0.1-0.3c-0.1-0.1-0.2-0.1-0.3-0.1c-0.1,0-0.2,0-0.3,0.1C70,16.8,70,16.9,69.9,17z"/>
				<path class="st0" d="M73.5,15.3h0.4v2.9h-0.4V15.3z"/>
				<path class="st0" d="M75.4,18.2l-0.3-0.3c0.2-0.1,0.4-0.3,0.6-0.5c0.2-0.2,0.3-0.4,0.3-0.6c-0.1,0.1-0.3,0.1-0.5,0.1
					c-0.2,0-0.4-0.1-0.6-0.2c-0.2-0.2-0.2-0.4-0.2-0.6c0-0.2,0.1-0.4,0.3-0.6c0.2-0.2,0.4-0.3,0.6-0.3c0.3,0,0.5,0.1,0.7,0.3
					c0.2,0.2,0.3,0.5,0.3,0.8c0,0.4-0.1,0.7-0.3,1.1C76,17.7,75.8,18,75.4,18.2z M76.1,16.4c0-0.1,0-0.2,0-0.2c0-0.2,0-0.3-0.1-0.4
					c-0.1-0.1-0.2-0.2-0.4-0.2c-0.1,0-0.2,0-0.3,0.1c-0.1,0.1-0.1,0.2-0.1,0.3c0,0.1,0,0.2,0.1,0.3c0.1,0.1,0.2,0.1,0.3,0.1
					C75.8,16.6,76,16.5,76.1,16.4z"/>
				<path class="st0" d="M77.7,17.8h1.1v0.4H77v0l0.2-0.2c0.3-0.3,0.5-0.6,0.6-0.9c0.2-0.2,0.3-0.4,0.3-0.5c0-0.1,0.1-0.2,0.1-0.4
					c0-0.2,0-0.3-0.1-0.4c-0.1-0.1-0.2-0.1-0.4-0.1c-0.1,0-0.2,0-0.3,0.1c-0.1,0.1-0.2,0.2-0.3,0.3v-0.5c0.2-0.2,0.5-0.3,0.7-0.3
					c0.3,0,0.5,0.1,0.6,0.3c0.2,0.2,0.2,0.4,0.2,0.6c0,0.1,0,0.2-0.1,0.4c0,0.1-0.1,0.3-0.2,0.5c-0.1,0.2-0.3,0.4-0.5,0.7L77.7,17.8
					z"/>
				<path class="st0" d="M80.5,15.2h0.2v1.6H81v0.4h-0.3v1h-0.4v-1H79V17L80.5,15.2z M80.2,16.9V16l-0.7,0.8H80.2z"/>
			</g>
		</g>
		<line class="st0" x1="34.8" y1="16.7" x2="61.4" y2="16.7"/>
		<line class="st0" x1="82.6" y1="16.7" x2="109.3" y2="16.7"/>
	</g>
	<g>
		<g>
			<path class="st0" d="M0,15.7c0,0,0,0.1,0,0.1c0,0.7,0.1,1.3,0.1,2c0,0,0,0,0,0c0,0.2,0,0.5,0,0.7c0,0.2,0,0.4,0.1,0.6
				c0,0.1,0,0.2,0,0.3c0,0.3,0.2,0.5,0.3,0.8c0.2,0.2,0.4,0.5,0.6,0.7c0.5,0.6,1.1,1.2,1.7,1.9c1,1.1,2,2.1,3.1,3.1
				C6.6,26.4,7.3,27,8,27.6c0.3,0.3,0.8,0.3,1.2,0.4c0.7,0.1,1.5,0.1,2.2,0.2c0,0,0,0,0,0c0.4,0,0.8,0,1.3,0c0.4,0,0.8,0,1.2,0
				c0.6,0,1.3,0,1.9,0c0.8-0.1,1.7-0.1,2.5-0.2c0.2,0,0.5,0,0.7,0c0.1,0,0.2,0,0.3,0c0.3-0.1,0.7-0.2,1-0.4c0,0,0.1-0.1,0.1-0.1
				c0.1,0,0.1-0.1,0.2-0.1c0,0,0.1,0,0.1-0.1c1.3-1.1,2.6-2.3,3.8-3.6c0.9-0.9,1.7-1.9,2.6-2.8c0.2-0.2,0.3-0.4,0.5-0.6
				c0.3-0.3,0.3-0.8,0.4-1.2c0,0,0,0,0,0c0.1-1.1,0.2-2.2,0.2-3.3c0,0,0,0,0,0c0-0.5,0-0.9,0-1.4c0-0.6,0-1.3,0-1.9
				c0-0.1,0-0.3,0-0.4c0-0.5-0.1-1-0.1-1.5c0-0.4-0.1-0.9-0.1-1.3c0-0.1,0-0.2,0-0.2c0-0.4-0.2-0.7-0.5-1c-0.2-0.2-0.3-0.4-0.5-0.6
				c-1.4-1.6-2.9-3.2-4.5-4.6c-0.7-0.7-1.5-1.3-2.3-2c-0.3-0.2-0.6-0.3-1-0.4c-0.8-0.1-1.6-0.1-2.3-0.2c0,0,0,0,0,0
				c-0.4,0-0.9,0-1.3,0c-0.4,0-0.8,0-1.2,0c-0.6,0-1.3,0-1.9,0c-0.1,0-0.2,0-0.3,0c-0.8,0-1.5,0.1-2.3,0.1c-0.3,0-0.6,0-0.9,0.1
				c0,0-0.1,0-0.1,0c-0.4,0.1-0.7,0.2-1,0.4c0,0,0,0,0,0C7.8,0.8,7.7,0.9,7.6,0.9c0,0-0.1,0-0.1,0.1C6.2,2.1,4.9,3.3,3.7,4.5
				C2.8,5.4,2,6.4,1.1,7.4C0.9,7.6,0.8,7.8,0.6,8C0.3,8.3,0.3,8.7,0.2,9.2c0,0,0,0,0,0c-0.1,1.1-0.1,2.2-0.2,3.3c0,0,0,0,0,0
				c0,0,0,0.1,0,0.1v2.8C0,15.6,0,15.6,0,15.7z M2.2,12.5c0-0.5,0.1-1.1,0.1-1.6c0-0.2,0-0.5,0.1-0.7c0,0,0,0,0-0.1
				c0-0.2,0-0.4,0.1-0.6c0-0.2,0.1-0.3,0.2-0.5c0.6-0.8,1.2-1.5,1.9-2.2c1-1.1,2-2.1,3.1-3.1C8,3.4,8.4,3.1,8.8,2.8
				C9.1,2.5,9.6,2.4,10,2.3c1.4-0.1,2.7-0.2,4.6-0.2c0.6,0,1.7,0.1,2.7,0.1c0.4,0,0.8,0.1,1.2,0.1c0.2,0,0.5,0.1,0.6,0.3
				c1,0.7,1.9,1.6,2.7,2.4c1,1,2,2,2.8,3c0.2,0.2,0.4,0.5,0.6,0.7c0.1,0.2,0.2,0.3,0.3,0.5c0,0,0,0,0,0c0.1,0.2,0.1,0.4,0.1,0.6
				c0.2,1.7,0.2,3.5,0.2,5.2c0,0.7-0.1,1.4-0.1,2.1c0,0.1,0,0.3,0,0.4c0,0.1,0,0.2,0,0.4c0,0.2,0,0.4-0.1,0.5c0,0.2-0.1,0.3-0.2,0.5
				c-0.6,0.8-1.3,1.6-2,2.3c-1.1,1.1-2.2,2.2-3.4,3.3c-0.3,0.3-0.7,0.6-1.1,0.8c-0.3,0.2-0.6,0.3-0.9,0.3c-1.8,0.2-3.6,0.2-5.4,0.2
				c-0.7,0-1.4,0-2.1-0.1c-0.4,0-0.8-0.1-1.2-0.1c-0.2,0-0.4-0.2-0.6-0.3c-0.8-0.6-1.5-1.2-2.2-1.9c-1.1-1-2.2-2.1-3.2-3.3
				c-0.3-0.3-0.5-0.7-0.8-1c-0.1-0.1-0.2-0.3-0.3-0.4c0,0,0,0,0,0c-0.1-0.2-0.1-0.3-0.1-0.5C2.2,16.4,2.2,14.4,2.2,12.5z"/>
			<path class="st0" d="M10.6,10.7c0,0.1-0.1,0.2-0.1,0.3c-0.3,0.7-0.5,1.3-0.8,2c-0.6,1.5-1.2,2.9-1.7,4.4c0,0.1-0.1,0.1-0.2,0.2
				c-0.1-0.1-0.1-0.1-0.2-0.2c-0.5-1-1.1-2-1.6-3c0-0.1-0.1-0.1-0.1-0.2c0,0,0,0-0.1,0c0,0.1,0,0.2,0,0.3c0,0.6,0,1.2,0,1.8
				c0,0.7,0,1.3,0.1,2c0.1,0.9,0.1,1.7,0.2,2.6c0,0,0,0,0,0.1c0,0,0,0.1-0.1,0.1c0,0-0.1,0-0.1,0c-0.2-0.2-0.4-0.4-0.6-0.7
				c-0.5-0.6-1-1.1-1.5-1.7c-0.1-0.1-0.1-0.2-0.1-0.3c-0.1-1-0.1-2-0.2-3.1c0-1.3,0-2.7,0.1-4c0-0.4,0.1-0.8,0.1-1.3
				c0-0.1,0-0.2,0.1-0.2c0.5-0.6,1-1.1,1.5-1.7c0.1-0.1,0.2-0.1,0.3,0.1c0.4,0.7,0.7,1.4,1.1,2.1c0.3,0.5,0.5,1.1,0.8,1.6
				c0,0.1,0.1,0.1,0.2,0.2c0-0.1,0.1-0.1,0.1-0.2c0.5-1.2,1-2.5,1.4-3.7c0.5-1.4,1.1-2.9,1.6-4.4c0-0.1,0.1-0.2,0.2-0.2
				c0.8,0,1.6-0.1,2.4-0.1c0.2,0,0.2,0,0.2,0.2c0,1.3,0,2.5,0,3.8c0,5.7,0,11.3,0,17c0,0.3,0,0.3-0.3,0.3c-0.7,0-1.4,0-2.1-0.1
				c-0.3,0-0.3,0-0.3-0.3c0-4.4,0-8.8,0-13.1c0-0.1,0-0.2,0-0.3C10.7,10.8,10.7,10.8,10.6,10.7C10.7,10.7,10.6,10.7,10.6,10.7z"/>
			<path class="st0" d="M14.8,14.1c0-3.4,0-6.9,0-10.3c0-0.1,0-0.1,0-0.2c0-0.2,0-0.2,0.2-0.2c0.3,0,0.7,0,1,0
				c0.8,0,1.5,0.1,2.3,0.1c0.1,0,0.3,0.1,0.4,0.2c1.6,1.3,3,2.8,4.4,4.3c0.4,0.5,0.8,0.9,1.3,1.4c0.2,0.2,0.3,0.5,0.3,0.7
				c0,0.5,0.1,1.1,0.1,1.6c0,0.2,0,0.2-0.2,0.2c-0.6,0-1.3,0-1.9,0c-0.1,0-0.2-0.1-0.2-0.2c0-0.3,0-0.6,0-0.9c0-0.2-0.1-0.3-0.2-0.4
				c-1.3-1.5-2.8-2.9-4.2-4.3c-0.1-0.1-0.1-0.1-0.2-0.2c0,0-0.1-0.1-0.2,0c0,0-0.1,0.1-0.1,0.1c0,0,0,0.1,0,0.1c0,5.2,0,10.4,0,15.6
				c0,0.1,0,0.2,0.1,0.3c0.1,0,0.2-0.1,0.2-0.1c1.5-1.4,3-2.8,4.4-4.4c0.1-0.1,0.2-0.2,0.2-0.4c0-0.3,0-0.5,0-0.8
				c0-0.2,0-0.2-0.2-0.2c-0.3,0-0.6,0-0.9,0c-0.2,0-0.2,0-0.2-0.2c0-0.6,0-1.3,0-1.9c0-0.2,0-0.2,0.2-0.2c1.1,0,2.2,0,3.3,0
				c0.2,0,0.2,0,0.2,0.2c0,1.3-0.1,2.5-0.1,3.8c0,0.3-0.1,0.6-0.3,0.8c-1.3,1.5-2.8,3-4.3,4.4c-0.5,0.4-0.9,0.8-1.4,1.2
				c-0.1,0.1-0.3,0.2-0.4,0.2c-1.1,0.1-2.1,0.1-3.2,0.2c-0.2,0-0.2,0-0.2-0.2C14.8,21,14.8,17.6,14.8,14.1
				C14.8,14.1,14.8,14.1,14.8,14.1z"/>
		</g>
	</g>
</g>
</svg>
