<?xml version="1.0" encoding="utf-8"?>
<!-- Generator: Adobe Illustrator 22.0.1, SVG Export Plug-In . SVG Version: 6.00 Build 0)  -->
<svg version="1.1" id="Layer_1" xmlns="http://www.w3.org/2000/svg" xmlns:xlink="http://www.w3.org/1999/xlink" x="0px" y="0px"
	 viewBox="0 0 41 41" style="enable-background:new 0 0 41 41;" xml:space="preserve">
<style type="text/css">
	.st0{clip-path:url(#SVGID_2_);}
	.st1{fill:#D02630;}
</style>
<g>
	<g>
		<defs>
			<rect id="SVGID_1_" x="-2.9" y="-0.3" width="43.8" height="41.3"/>
		</defs>
		<clipPath id="SVGID_2_">
			<use xlink:href="#SVGID_1_"  style="overflow:visible;"/>
		</clipPath>
		<g class="st0">
			<path class="st1" d="M28.2,41H12.5l-1.2-0.5L0.2,29.4l1.3-2.9l19.9,0.4L21.6,14L1.4,14.2l-1.2-2.9L11.3,0.2l1.2-0.5h15.7l1.2,0.5
				l11.1,11.1l0.5,1.2v15.7l-0.5,1.2L29.4,40.5L28.2,41z M13.2,37.6h14.3l10.1-10.1V13.2L27.5,3.1H13.2l-7.6,7.6l17.7-0.2l1.7,1.7
				l-0.2,16.5l-1.8,1.7L5.7,30L13.2,37.6z"/>
		</g>
	</g>
</g>
</svg>
