<?xml version="1.0" encoding="utf-8"?>
<!-- Generator: Adobe Illustrator 22.0.1, SVG Export Plug-In . SVG Version: 6.00 Build 0)  -->
<svg version="1.1" id="Layer_1" xmlns="http://www.w3.org/2000/svg" xmlns:xlink="http://www.w3.org/1999/xlink" x="0px" y="0px"
	 viewBox="0 0 38 38" style="enable-background:new 0 0 38 38;" xml:space="preserve">
<style type="text/css">
	.st0{fill-rule:evenodd;clip-rule:evenodd;fill:#FFFFFF;}
</style>
<path class="st0" d="M3.9,31.7c-1.4-0.5-2.4-1.4-2.9-2.8c-1.3-3.5-1.6-18.1,0.8-20.9c0.8-1,1.9-1.6,3.2-1.7
	c6.6-0.7,26.9-0.6,29.2,0.2c1.4,0.5,2.3,1.4,2.9,2.8c1.4,3.6,1.4,16.7-0.2,20.2c-0.4,0.9-1.2,1.6-2.1,2.1
	C32.4,32.8,7.1,32.7,3.9,31.7z M14.4,24.8c4-2,7.9-4.1,11.8-6.1c-4-2.1-7.9-4.1-11.8-6.2C14.4,16.6,14.4,20.7,14.4,24.8z"/>
</svg>
